<svg width="18" height="18" viewBox="0 0 18 18" fill="none" xmlns="http://www.w3.org/2000/svg">
<path d="M1.5 6.29996C1.49991 5.76174 1.6071 5.22889 1.8153 4.73257C2.02351 4.23625 2.32855 3.78641 2.71261 3.40933C3.09667 3.03226 3.55203 2.73552 4.05209 2.53645C4.55215 2.33739 5.08687 2.24 5.625 2.24996C6.26172 2.24658 6.89189 2.37856 7.47374 2.63717C8.05559 2.89577 8.57584 3.27508 9 3.74996C9.42416 3.27508 9.94441 2.89577 10.5263 2.63717C11.1081 2.37856 11.7383 2.24658 12.375 2.24996C12.9131 2.24 13.4479 2.33739 13.9479 2.53645C14.448 2.73552 14.9033 3.03226 15.2874 3.40933C15.6714 3.78641 15.9765 4.23625 16.1847 4.73257C16.3929 5.22889 16.5001 5.76174 16.5 6.29996C16.5 10.317 11.7158 13.35 9 15.75C6.29025 13.3297 1.5 10.32 1.5 6.29996Z" fill="black"/>
</svg>
